<?xml version="1.0" encoding="utf-8"?>
<svg version="1.1" id="_x31_" xmlns="http://www.w3.org/2000/svg" xmlns:xlink="http://www.w3.org/1999/xlink" x="0px" y="0px"
	 viewBox="0 0 612 792" style="enable-background:new 0 0 612 792;" xml:space="preserve">
<style type="text/css">
	.st0{fill-rule:evenodd;clip-rule:evenodd;}
</style>
<path class="st0" d="M402.7,486.3h14.1V500h-14.1V486.3L402.7,486.3z M320.9,125.4c-1.4,0.1-2.8,0.5-4,1.4c-4,3-1.9,8,2.6,8.8
	c0,2,0.3,10.1-0.2,11.3c-1.2,1.2-50.5-0.7-53.4,0.4c-0.1,0.7,2.2,3.2,2.7,3.9c1,1.3,2,2.6,3,3.9l3.1,0.1v3.5
	c0.2,0.8,3.9,5.4,4.7,6.2c-0.9,1.3-2.3,2.9-3.3,4.3c-2.1,2.8-1.4,2.7-1.4,6.3l-3.5,0c-0.7,0.8-5.3,6.5-5.4,7.1H297
	c-0.3,1.4-9.7,13.4-11.3,15.5l-29.1,38.6c-1.2,1.6-4.7,6.7-5.8,7.7l-76.6,0.1c0-0.6-0.2-38.9,0-39.8c0.3-1.1,2.1-0.9,3.3-2.3
	c2.7-3.3-0.8-7-6.4-7c-7,0-9.6,7.3-2,9.1V216h-51.4c0.2,0.6,5.1,7.2,5.9,7.9l1.8,0.1c0.9,2.9-1.2,0.7,2.1,4.9c1,1.3,2,2.7,3,3.9
	c-0.8,1.2-4.7,5.8-4.9,6.6l0,2.2c-2.8,0.2-2,0.1-4.3,3.3c-0.9,1.2-2.6,3-3.3,4.3H169l0,6l-40.2,35.4l-18.8,0v5.5h10.5
	c-0.5,1.9-4.8,13.7-5.8,16.8c-1.7,5.6-3.8,12.7-3.8,19l-23.2,0c-1.5-1.6-2.2-2.9-4.6-3.3c-3.2-0.5-6.6,1.4-7.4,4.5
	c-0.3,1.2-0.3,2.1,0,3.3c0.8,2.7,2.2,2.8,3.9,4.1l0,11.1H35.2c0.1,1.1,3.8,5.7,4.7,6.9l1.8,0c0.2,3-0.1,2.5,1.7,4.8
	c0.7,0.9,2.3,2.8,2.6,3.8c-0.9,1.1-1.7,2.1-2.5,3.3c-1.6,2.1-1.6,1.4-1.8,4.2l-1.5,0l-5.4,7.1v0.1l44.9,0.1V401
	c-0.2,0.8-4,4.5-4.9,5.1l30.6,31.4c3.9,3.8,7.5,7.9,11.4,11.7c2,1.9,1.1,2.2,0.4,5.8c-0.8,4.3-1.2,9.7-0.1,14c0.9,3.5,3.5,7,5.7,9.8
	c4.5,5.9,9.3,11.2,14,16.9c2.3,2.7,5,5.4,7.4,8.2l7.5,8.1c6.8,6.4,23.2,28.7,24.6,37.5h137.2v32.3c-10.6,2.6-18.1,13.2-16.2,24
	c2,10.9,12.5,17.8,23.3,17.8h0.1c19.4,0,30.6-19.1,19.9-33.4c-3.7-4.9-6.9-6.1-12.3-8.4v-32.3H478c0-1.3,1.2-4.7,1.6-6.1l3.4-12.1
	c0.5-1.8,1.1-4.5,1.8-6.1c-1.3-1-3.2-1.9-4.7-2.9c-20-13.9,6.4-42.5,18-52.9c5-4.4,3.7-4.2,5.5-10c3.7-11.9,6.7-24,10.3-36
	c2.4-8,4.5-16.1,6.9-24.1c1.2-3.9,2.3-7.9,3.4-11.9c1.1-3.9,0-2.6,3.4-4.4c1.5-0.8,2.5-2.2,2.7-3.8v-0.9c0-0.1,0-0.2,0-0.4
	c-0.8-4.4-6.9-5.2-10.3-3.7c-1.9,0.9-3.3,2.3-3.3,4.5c0,3.2,2.2,3.3,3,4.6c-0.1,0.9-1.2,3.6-1.6,4.7c-0.5,1.6-1.3,3.5-1.6,5.1h-12.5
	l0-31.3l10.5-7.1c0.1-1.4,0.3-5.4-0.1-6.5c-0.6-0.1-9.4,2.9-10.3,3.4v-57.9h8c0.3-1.2,0.4-4.9,0.1-6c-2.2-0.7-17.1,0-20.8-0.2
	l-35.7-29.8l0-44c0.6-0.8,2.7-0.9,4.3-3.4c3.7-5.7-6.2-11.3-12-7.2c-3.7,2.6-4.1,7.4,0.4,9.6c2.3,1.1,1.6,0,1.6,6.3c0,2.7,0,5.3,0,8
	h-44.5l5.8,7.7l2.2,0c0.3,3.7-0.3,2.4,1.9,5.3c0.9,1.2,2.4,2.9,3.1,4.2h-23c-1.4,0-6.6,0.4-7.3-0.5c-1-1-10.9-16.7-12.1-18.5
	c-8.2-12.2-15.9-24.9-24.2-37.1c-8.2-12.2-16.1-24.8-24.2-37.1c-3.5-5.3-2.6-3.7-2.5-12.7c0-5.1,0.1-1.8,2.7-4.8
	c3.6-4.1-0.8-7.9-5.6-8.2H320.9L320.9,125.4z M375.9,486.3h13.9V500h-13.9V486.3L375.9,486.3z M348.8,486.3h13.9V500h-13.9V486.3
	L348.8,486.3z M253.7,486.3h13.9V500h-13.9V486.3L253.7,486.3z M226.6,486.3h13.9V500h-13.9V486.3L226.6,486.3z M199.6,486.3h14.1
	V500h-14.1V486.3L199.6,486.3z M280.5,499.1v-12.8h13.9V500c-2.3,0-12.4,0.3-13.7-0.1C280.5,499.4,280.5,499.6,280.5,499.1
	L280.5,499.1z M138.6,470.6c2,1.6,3.6,4,5.6,5.5c1,0.8,1.8,1.9,2.7,2.9c0.6,0.6,1.1,0.8,1.6,1.3c0.5,0.6,0.7,1,1.3,1.6l8.4,8.2
	c0.7,0.5,2.1,2.1,2.9,2.9c-5.1,0-11.4,1.4-13.5-5.4c-0.6-2.1-0.7-4.9-1-5.5c-2.4-0.8-5.5-0.5-7.7-3c-1.6-1.8-1.5-4.2-1-6.4
	C138.1,472,138.3,471.1,138.6,470.6L138.6,470.6z M419.4,458.9h13.9v13.7h-13.9V458.9L419.4,458.9z M392.4,458.9h13.9v13.7h-13.9
	V458.9L392.4,458.9z M365.4,458.9h14.1v13.7h-14.1V458.9L365.4,458.9z M338.6,458.9h13.9v13.7h-13.9V458.9L338.6,458.9z
	 M291.4,458.9h13.9v13.7h-13.9V458.9L291.4,458.9z M264.6,458.9h13.9v13.7h-13.9V458.9L264.6,458.9z M237.6,458.9h13.9v13.7h-13.9
	V458.9L237.6,458.9z M210.5,458.9h13.9v13.7h-13.9V458.9L210.5,458.9z M328.1,377.1l1.5-0.2c1,1.8,13.4,34.8,15.5,39.9
	c1.5,3.6,9.1,23.3,9.2,24.3h-26.1V377.1L328.1,377.1z M181.7,441.2c0.3-1,14.4-12.1,14.5-12.2c0.6,1.2,4.8,11.5,4.7,12
	C199.7,441.5,184.5,441.2,181.7,441.2L181.7,441.2z M380.6,434.1h7.1c0.7,1.4,2.9,5.7,2.9,7.1l-6.3,0c-1.1-0.1-0.7,0.1-1.3-1
	C382.6,439.2,380.7,435.1,380.6,434.1L380.6,434.1z M368.1,434.1h7.8l3.2,7l-8.1,0C370.3,440.3,368.2,435.3,368.1,434.1L368.1,434.1
	z M356.2,434.1l7.2,0c0.5,1.1,2.8,6.2,2.8,6.9c-1.3,0.4-5.6,0.1-7.2,0.1L356.2,434.1L356.2,434.1z M139,412.9l4.6,7.5
	c1.5,2.5,3.3,4.9,4.9,7.3c2.4,3.6,5.2,7,8.1,10.2c0.6,0.6,2.7,2.9,2.8,3.4h-7.8v13.9l-11.9,0l-12.8-12.8c-0.6-0.5-0.7-0.8-1.1-1.3
	c-0.4-0.5-1-0.7-1.5-1.2c-0.8-0.7-1.6-1.8-2.4-2.7c-0.9-0.9-1.8-1.8-2.7-2.7c1-1.6,3.3-3.8,4.7-5.4l5-5.4
	C131,421.7,137.7,413.9,139,412.9L139,412.9z M214.1,433l8.1,0c1.4,0,1.1-0.2,1.7,1c0.8,1.6,3.1,5.9,3.4,7.2h-9.6
	C217.2,440.5,214.2,433.8,214.1,433L214.1,433z M202.5,433h7.1c0.5,1,3.3,7.4,3.4,8.2h-6.9C204.8,439.2,203.4,435.3,202.5,433
	L202.5,433z M199.4,426.2l5.3-4.3c0.2,0.2,0.2,0.2,0.4,0.4l3.7,8.9h-7.1L199.4,426.2L199.4,426.2z M176.4,440.1V382
	c1,0.1,0.5-0.3,0.9,0.9l3.9,9.4c1.5,3.5,3,7.2,4.5,10.8l8.9,21.7c-0.5,0.8-7.7,6.7-9,7.7L176.4,440.1L176.4,440.1z M375.7,423.3h7.4
	c0.5,1,3.3,7.3,3.4,8H379C378.5,429.1,376.6,425.6,375.7,423.3L375.7,423.3z M363.4,423.3l7.8,0l3.4,7.9l-7.9,0L363.4,423.3
	L363.4,423.3z M352,423.3h6.9l3.4,8l-7.2,0l-0.4-0.9c-0.1-0.4-0.2-0.6-0.4-0.9L352,423.3L352,423.3z M503.2,433.3h-44.5v-10.6h47.8
	C505.6,424.9,503.6,432.5,503.2,433.3L503.2,433.3z M209.1,422l8.8,0c1.1,2.1,4,7.3,4.5,9.3h-9.2L209.1,422L209.1,422z M197.6,422
	c0.2-0.2,0.7,0.3,0.2,0.1C197.8,422.1,197.3,422.3,197.6,422L197.6,422z M415,421.3c1.2-0.1,5.9-1.9,7.4-2.4
	c4.6-1.4,15.5-3.9,20.3-4.2c1.4-0.1,3.2-0.2,4.5-0.4v19h-26.6L415,421.3L415,421.3z M207.9,419.2l6.2-5l0.5,0.8
	c0.1,0.2,0.2,0.5,0.3,0.8c0.3,0.5,0.6,1.1,0.8,1.6c0.5,1,1,2.1,1.6,3.1l-8.9,0L207.9,419.2L207.9,419.2z M371,412.3
	c1.6,0,3.1,0,4.7,0c3.2,0,2.3-0.3,3.2,1.5c1,2.1,1.8,4.4,2.8,6.5h-7.4C373.6,418.7,371.1,413.5,371,412.3L371,412.3z M358.9,412.3
	l7.4,0l3.6,8l-7.8,0L358.9,412.3L358.9,412.3z M347.7,412.3h6.7l3.2,7.9l-6.8,0l-0.4-0.9c-0.1-0.4-0.2-0.6-0.4-1
	c-0.3-0.7-0.5-1.4-0.8-2.1C348.7,415,348.3,413.6,347.7,412.3L347.7,412.3z M217.7,411.3c0.6-0.8,10.3-8.9,11.4-9.5l0.4,0.5
	c1.4,2.3,7.6,15.9,9.2,19c1.6,3.2,3.1,6.6,4.8,9.9c0.8,1.7,1.5,3.3,2.4,4.9c0.5,0.9,2.1,4.2,2.3,5h-14.7c-1.5-2.3-2.7-4.9-3.9-7.4
	C225.9,426.9,220.6,417.7,217.7,411.3L217.7,411.3z M204.3,411.2l6.7,0c-0.4,0.6-4.2,3.7-4.9,4.2L204.3,411.2L204.3,411.2z
	 M193,411.1l7.3,0c0.4,0.9,2.9,6.3,2.8,6.7l-2.3,2c-0.9,0.9-2.6,0.7-3.8,0.5L193,411.1L193,411.1z M141.7,409.8l24.3-26.6
	c0,18.9,0,37.8,0.1,56.6c0,1.5-0.9,1.9-1.9,1l-11-13.9C149.3,421.8,144.7,415.5,141.7,409.8L141.7,409.8z M116,431.3l-14.5-14.4
	c-0.7-0.7-1.8-1.7-2.4-2.5c-1-1.3-1.5-1.4-2.5-2.4c0.6-1,28.7-28.7,30.3-29.8c0,2.8,0.6,4.9,1.4,7.4c1.2,3.5,3.6,9.3,5.3,12.7
	c0.8,1.7,2.4,4.5,2.9,6.2L116,431.3L116,431.3z M354.4,401.2h7.1c0.5,2,3.2,6.8,3.4,8.2h-7.1C357.2,408.5,354.5,402.2,354.4,401.2
	L354.4,401.2z M366,401.2l7.2,0c1,2,3.1,6.3,3.6,8.2h-7.4L366,401.2L366,401.2z M343.4,401.2l6.3,0l3.4,8.2l-6.5,0L343.4,401.2
	L343.4,401.2z M199.6,400.3h7.8c1,2.1,3.8,7.2,4.2,9.1h-8c-0.6-0.7-1.7-3.5-2-4.4C201.1,403.7,199.8,401.6,199.6,400.3L199.6,400.3z
	 M188.4,400.3h7.1l3.9,9l-7.2,0C191.5,408,188.6,401.5,188.4,400.3L188.4,400.3z M485.1,399.7l2.6-2.7l7.9,7.7l7.8-7.6
	c0.9,0.3,2.3,1.8,2.8,2.5l-7.7,7.7c0.5,1.6,6.6,6.3,7.9,8.2l-2.6,2.5l-8-7.8l-8,7.8l-2.6-2.7c1.3-1.9,7.2-6.5,7.7-8L485.1,399.7
	L485.1,399.7z M232.4,399.2l17.2-14.3c0.4,1.8,11.5,23.9,13.3,28.1c1.4,3.3,13.2,27,13.1,28.1c-1.8,0.5-19.5,0.1-22.9,0.1
	c-1.1-1.7-11.1-22.5-13-26.1c-0.9-1.8-1.8-3.6-2.6-5.4C236.2,406.3,234.1,402.7,232.4,399.2L232.4,399.2z M500.1,365v28.3h-25.2
	c3.1-6,11.9-18.1,17.6-22.3C494.5,369.5,498,366,500.1,365L500.1,365z M361.2,390.4l7.3,0c0.2,0.2,0,0,0.2,0.4l3.3,7.5h-7.4
	L361.2,390.4L361.2,390.4z M349.8,390.4l6.9,0l3.6,8l-7.1,0L349.8,390.4L349.8,390.4z M339.2,390.4h6l3.3,8l-6.2,0
	c-0.5-0.7-1.3-3.1-1.6-3.9C340.2,393.2,339.8,391.6,339.2,390.4L339.2,390.4z M194.6,389.3l7.2,0l4.7,9.3h-7.8L194.6,389.3
	L194.6,389.3z M183.5,389.3l7.3,0l3.9,9.2l-7.2,0L183.5,389.3L183.5,389.3z M192,383.1c5,0.4,2.9,0,6.9,0c0.7,1.4,1.9,3.2,2,4.6
	c-1.1,0-6.1,0.1-6.7,0C193.3,387.4,192.4,384,192,383.1L192,383.1z M253.2,382c0.7-1.1,5.6-4.6,7-5.9c0.8-0.8,6.7-5.6,7.3-5.8
	c1,0,2.4,0.6,3.4,0.8l7.4,1.6c6.2,0.8,3.2-1.7,6.3,9.5c3.9,14.2,8.2,27.6,17.6,39.3c1.6,2,6.3,7.2,8.4,8.7c0.5,0.3,2.7,2.4,3,2.8
	l0,8.2h-31.7c-2.6-4.8-4.9-9.9-7.1-14.8c-1.1-2.4-2.6-4.8-3.5-7.3c-1.1-2.9-9.3-19.1-10.8-22.2L253.2,382L253.2,382z M202.5,382.2
	c1.9-0.5,5.7-2.1,7.3-3.4c1-0.8,2.1-1.5,3.1-2.3c1.1-0.8,1.8-1.8,2.8-2.5c0,0,0.1,0.1,0.1,0.1l11.5,23.8l-11.6,9.5L202.5,382.2
	L202.5,382.2z M180.3,381.8c3.1,0,4.7-0.1,7.5,0.8c0.6,1.2,2.1,4,2.2,5.2h-7.1L180.3,381.8L180.3,381.8z M129.8,379.9
	c0.3-0.1,3.9-0.3,4.5-0.4c1.4-0.1,3-0.4,4.3-0.6c2.7-0.4,5.4-1.1,8.1-1.7c3.9-0.9,1.4-0.7,6.9,1.8c1.8,0.8,5.9,2,7.7,2.1
	c-1,1.5-4,4.7-5.4,6.1c-2.1,2.2-15.3,17.2-16.7,18.2c-3.9-7.6-7.2-15.6-9.2-23.8C130,381.2,129.9,380.1,129.8,379.9L129.8,379.9z
	 M356.4,379.3h7.4l3.4,7.9l-7.2,0c-0.5-0.6-1.6-3.1-1.9-3.9C357.6,382,357,380.7,356.4,379.3L356.4,379.3z M345.2,379.4l6.8,0
	c0.6,2.5,2.8,5.5,3.4,8h-6.9L345.2,379.4L345.2,379.4z M335,379.3h5.8l3.2,7.9l-5.8,0L335,379.3L335,379.3z M339,375.2l0.3,1.3
	l-5.2,0C334.7,376.1,338.7,375.2,339,375.2L339,375.2z M343,373.8c2-1.2,1.9-0.7,5.2-2.9c0.4,0.8,2.2,4.8,2.2,5.5l-6.2,0
	C343.6,375.8,343.2,374.7,343,373.8L343,373.8z M447.1,359.7v15.9c-1.6,1-3.3,2.1-5,3c-2,1.1-14.1,10-14.2,10l-8.4-7.6
	c-2.7-2.7-5.9-5-8.5-7.8c2.6-4.1,10-8.4,14.5-10.2C432.7,360.2,438.7,359.7,447.1,359.7L447.1,359.7z M286.5,372.9
	c4.1,0,10.9-2.4,14.3-4.6c1.5,2.3,2.7,3.8,5.1,5.3c1.9,1.1,5.5,2.9,7.6,2.9v50.6c-6.5-3.2-14.2-16.8-17-23.6
	c-2.1-5-3.9-9.9-5.5-14.7c-0.9-2.7-1.6-5.1-2.4-7.8L286.5,372.9L286.5,372.9z M364.7,371.4c5.2,0,9.9-1.3,14.2-3.8
	c3-1.8,1.4-1,4.8-1c0.8,0.5,10.1,20.8,11.5,23.6c2,3.9,3.7,8,5.7,11.9l5.6,11.9c-0.4,1.1-1.3,2.2-1.8,3.2c-0.6,1.2-1.1,2.4-1.7,3.6
	c-1,2-2.6,5.4-3.1,7.5c1.2-0.3,8.2-4.4,11.2-5.1l4.8,10.1c-7,0.1-13.5-0.4-15.3,8.6L400,445l-2.9,0c-0.8-1.2-3.4-7.3-4.1-9
	c-1.2-3.1-2.8-6.2-4.1-9.2c-2.5-6.2-5.6-12.3-8.1-18.5L364.7,371.4L364.7,371.4z M352.4,370.3l7.6,0.9c0.6,0.8,2.2,4.3,2.3,5.2h-7.1
	L352.4,370.3L352.4,370.3z M388.6,366c0,0,0.1-0.1,0.1-0.1c0.1,0.2,5.2-2.2,6.1-2.8c2-1.2,3.5-2.6,5.4-3.8c0.7,1.4,1.3,3.4,1.9,5
	c0.6,1.6,1.5,3.3,2.1,5c0.6,1.4,1.6,3.3,2.5,4.6c1,1.5,2.4,2.3,3.6,3.5l14.5,14c-0.5,0.7-3.3,3.1-4.2,4l-7.7,8.9
	c-1.2,1.5-2.4,3.4-3.5,4.9l-0.3-0.5c-0.1-0.2-0.3-0.5-0.4-0.7l-9.7-20.3C396.8,382.6,391.5,372.3,388.6,366L388.6,366z M245.6,365.9
	c0.5,0.1,2.7,1.2,3.4,1.5c4.2,1.9,8.1,2.2,12.5,1.8c-0.3,0.4-9.8,8.4-10.5,8.6L245.6,365.9L245.6,365.9z M211.9,365H194
	c1-4.3,4.4-6,8.7-5.3C205,360,211.2,362.6,211.9,365L211.9,365z M177.5,356.3c2,0.2,5.1,1.6,6.8,2.8c2,1.4,3.7,3.2,3.7,5.8h-10.5
	V356.3L177.5,356.3z M169,355.7v9.3h-15.6c1.5-3,3.3-4.6,6-6.4C161.8,356.9,166.1,355.7,169,355.7L169,355.7z M148.7,365h-21.9
	C134.4,353.4,148.3,361,148.7,365L148.7,365z M102,370.3c3.9,0,1.8-0.2,6,3.1c4,3.2,10,5.7,15,6.2c-1.2,1.8-2.3,2.3-3.6,3.7
	c-0.6,0.6-1,1.2-1.7,1.9c-0.7,0.7-1.3,1-2,1.8c-0.6,0.7-0.9,1.2-1.7,1.9c-0.7,0.7-1.3,1-2,1.8c-0.6,0.7-0.9,1.2-1.7,1.9
	c-0.7,0.6-1.3,1-2,1.8l-14.8,14.5l-8.2-8.2L85.2,340c1.1-1,1.6-1.4,2.5-2.6l23.2-0.1c0,7.6,3.5,16,8.1,22l4.6,5.6l-20.1,0
	C101.5,364.9,102,364.8,102,370.3L102,370.3z M458.8,369.4v-9.5c1,0,1.1,0.1,1.8,0.2c2.4,0.3,2.1-0.1,6,0.7c2,0.4,3.8,1,5.6,2
	l0.6,0.4L458.8,369.4L458.8,369.4z M213.2,360.1c3.5,0,4.2,2.3,11.8,4.2c4.8,1.2,10,0.9,15.2,0.9l0.5,0.8c2.2,4.2,4.5,10.6,6.9,14.6
	l-17.2,14.5c-2.1-4.1-4-8.3-6-12.3l-4.5-9.1c-0.4-0.8-1.5-2.3-1.2-3.1c1.7-0.7,4,0.4,5.6-0.4c0-1.4,0.3-3.9-0.1-5.2
	c-1.2-0.4-6.4-0.1-8.1-0.1C215.1,363.4,213.9,361.8,213.2,360.1L213.2,360.1z M52.6,358.5c0.5-0.7,1.8-2.1,2.7-2.4l7.6,7.5
	c1.4-0.4,6.3-6.2,8-7.6c0.9,0.3,2.2,1.8,2.7,2.5l-7.7,7.7c0.5,1.4,6.3,6.2,7.7,8c-0.3,0.9-1.8,2.2-2.5,2.7l-8-7.8l-8,7.8l-2.7-2.5
	c1.3-1.9,7.3-6.6,7.8-8.2c-0.6-0.8-1.3-1.1-2-1.8c-0.6-0.7-1-1.3-1.8-2C55.3,361.3,53.4,359.9,52.6,358.5L52.6,358.5z M328.1,336.2
	c5.6,0,17.5,4.6,22.1,8c1.5,1.1,4.4,3.1,5.4,4.6h-27.5V336.2L328.1,336.2z M313.5,336.9v11.9h-11.2c0-2.7,2-5.8,3.9-7.7
	C308.2,339.2,310.8,337.5,313.5,336.9L313.5,336.9z M297,348.8h-28.4c1.2-2.5,2.1-5.1,4.7-6.8c3.6-2.3,5.2-2.4,9.1-2.3
	c3.2,0.1,6,1.4,8.6,3.2C293.2,344.3,295.9,346.7,297,348.8L297,348.8z M215.3,302.3l0.3,0.5c0.1,0.4,0.1,0.4,0.3,0.8l17.3,45.2
	h-24.8c-0.4-1.9-1.1-3.7-1.4-5.7l-0.8-6.5c-0.2-4.7,0.3-9.3,1.1-13.5c0.7-3.6,2-7.7,3.3-11.1C211.5,309.7,213.7,304.3,215.3,302.3
	L215.3,302.3z M500.1,293.8V353l-9.4,3.3c-3-1.7-7.6-10.2-8.8-14c-3.7-11.1,1.6-26.4,7.9-35.8C491.2,304.4,498.2,294.3,500.1,293.8
	L500.1,293.8z M381.7,249.2c0.7,1.5-0.2,24.9,0.4,29.3c0.5,4.6-0.6,5.4,0.9,13.9c0.7,4.3,1.9,7.6,3.4,11.7c1.2,3.1,3.3,7,5.1,9.8
	c0.9,1.5,2,3,2.9,4.4c0.7,1,2.9,3.2,2.8,4.4c-0.4,4.1-1.6,6.4-1.9,13c-0.2,3.9,1.8,12.5,1.6,13.1c-1,0.4-18.8,0.2-21.4,0.1
	c-3.7,0-3.2,0.9-6.9-3.8c-17-21.6-18.6-52.2-11.7-77.8c0.8-3,6-17.8,8.5-18.3C366.2,248.8,381,248.8,381.7,249.2L381.7,249.2z
	 M152,296h17v9.7c-3.9,0-7.5-0.8-10.9-2.5C155.4,301.9,152,299.3,152,296L152,296z M177.5,304.4V296h10.1c-0.4,1.4-3,4.1-4.1,5
	C180.9,302.9,180.2,303.1,177.5,304.4L177.5,304.4z M194.9,296h15.6c-0.9,1.4-6.4,3.7-8.1,4.1C198.9,300.9,194.9,300.4,194.9,296
	L194.9,296z M127.9,296h19.9c-2,3.2-6.4,5.6-10.1,6.4C132.9,303.4,129,300.6,127.9,296L127.9,296z M458.3,293.8h30.4
	c-4.5,4-9,7-15.2,7.7c-2.6,0.3-6.7-0.9-9.2-2.1C462.6,298.6,458.8,295.5,458.3,293.8L458.3,293.8z M418.5,293.8h28.6
	c-1.2,1.8-11.7,5.2-14.6,5.7c-2.9,0.5-6,0.3-8.7-0.7C421.7,297.9,419.1,296.1,418.5,293.8L418.5,293.8z M177.5,262.4l26.6,24.5
	c1.1,1.1,2.9,2.3,3.7,3.6h-30.4V262.4L177.5,262.4z M168.9,263.2l0.1,27.3h-31.5L168.9,263.2L168.9,263.2z M455.6,265.3
	c0.5,0.1,6,4.7,6.8,5.5l13.4,11.1c1,0.8,6.2,5.1,6.7,5.8h-26.8V265.3L455.6,265.3z M450,266v21.7h-26.1c0.7-1,17-14.1,19.5-16.3
	C444.3,270.5,449.3,266.2,450,266L450,266z M298.3,249h18.1v8.6c-3.4-0.3-8-1.1-11-2.4C303,254.2,298.7,251.7,298.3,249L298.3,249z
	 M413.6,254l-1.7,0.1c-0.8,0.8-3.9,4.6-4.1,5.5h40.9c-0.5,0.7-4.3,3.8-5.3,4.5c-2.9,2.1-7.4,6.5-10.9,9.1l-10.9,9.1
	c-1.6,1.5-3.7,3.1-5.5,4.5c-1.5,1.2-2.1,0.8-4.1,0.8h-15.2c0,1.5-0.3,4.8,0.1,6c1.3,0.4,8.4,0.1,10.4,0.1c-1.5,2.9-8,18.5-8.3,21.7
	c-5.9-6.5-11.2-18.9-12.3-27.4c-0.8-6.5-0.5-30.8-0.5-39.1h29c-0.2,0.9-0.8,1.3-1.3,2C413.3,252.1,413.7,252.7,413.6,254L413.6,254z
	 M325.2,257.8V249h29.5c-1.1,4.9-15.6,7.6-20.6,8.2c-1.4,0.2-2.9,0.2-4.3,0.4L325.2,257.8L325.2,257.8z M177.5,254.7l0-5.7H247
	c-0.4,1.2-22.9,30.7-27.4,36.6c-0.7,1-3.3,5-4.4,5c-0.4,0-17.3-16.1-19-17.7c-1.5-1.5-3.2-3-4.7-4.4c-1.5-1.5-3.1-3.3-4.7-4.6
	C185.5,262.5,178.1,255.7,177.5,254.7L177.5,254.7z M268.9,249H293c-0.2,1.9-2.7,4-4.2,4.9c-4,2.3-11.4,2.1-15.4,0
	C271.2,252.7,270,251.1,268.9,249L268.9,249z M263.3,348.8H238l-2.5-6.3c-1-2.1-1.7-4.3-2.6-6.5c-4.6-11.1-7.9-21.8-11.8-33
	c-0.4-1.1-0.7-2.3-1.1-3.4c-0.3-1.1-0.8-2.6-1-3.6c1.4,0,4.3,0.3,5.4-0.2c0-1.3,0.2-4.1-0.1-5.2l-1.6-0.2c0.3-1,20.8-28.1,23.2-31.3
	c1.4-1.8,6.7-9.4,8-10.2l8.7,0c-0.6,1.2-2.7,3.4-3.6,4.8c-4.1,6-6.3,9.5-9.1,16.6c-1.7,4.1-3,8.8-3.9,13.1c-0.5,2.5-0.7,4.9-1,7.4
	c-0.3,2.6-0.5,5.6-0.4,8.2c0,0.8,0.2,1.1,0.2,1.8c0.1,0.7-0.1,1.5,0,2.2c0.5,4.2,0.8,6.7,1.9,11C250,327.6,255.4,337.3,263.3,348.8
	L263.3,348.8z M325.2,210.3c0.7,0.5,11.4,12.8,13,14.8c0.6,0.7,1.4,1.5,1.9,2.1c1.9,2.5,14.3,16.1,14.6,17.1h-29.5V210.3
	L325.2,210.3z M316.4,210.5v33.8h-33.1c1.6-2.4,6.3-6.1,8.1-8.5L308,219c1.4-1.4,2.7-2.9,4.1-4.3
	C313.2,213.6,315.4,211.2,316.4,210.5L316.4,210.5z M428.8,233.9l7.7,7.6c1.6-0.5,6.2-6.3,8.1-7.6l2.6,2.5l-7.8,7.9l7.9,8l-2.7,2.5
	l-8-7.8l-7.8,7.8l-2.7-2.5c0.5-0.8,6.4-6.4,7.8-7.9l-7.8-7.8C426.7,235.7,427.7,234.2,428.8,233.9L428.8,233.9z M141.5,224.7
	l2.7-2.5l7.9,7.7c1-0.5,1.3-0.9,2-1.8c0.7-0.9,1.3-1.2,2.1-1.9c1.4-1.3,2.4-2.8,4.1-3.9l2.5,2.6c-0.7,1.1-1.4,1.1-2,1.9
	c-1.8,2-5.2,5.1-5.9,6.1l7.9,7.7l-2.6,2.7l-7.9-7.7c-1.6,0.5-6.2,6.3-8.1,7.6l-2.8-2.3l7.9-8L141.5,224.7L141.5,224.7z M325.2,155.7
	c0.9,0.7,36.2,56.9,42.2,66.3l14.1,22.3l-18.8,0c-1.3-0.9-3.5-3.9-4.9-5.1l-4.7-5.3c-0.7-1-1.6-1.6-2.3-2.6
	c-2-2.6-9.5-9.8-12.1-13.3l-12-13.3c-1.7-2-1.5-0.5-1.5-3.6c7.3-1.7,6.7-8.4,0-9.9V155.7L325.2,155.7z M316.4,201.7
	c0.3,2.9,0,1.9-1.6,3.4c-1,1-1.4,1.8-2.6,2.7c-0.5,0.4-4.8,4.7-5.2,5.2c-0.8,1-1.8,1.5-2.7,2.5l-5.2,5.4c-1.3,1.1-1.5,1.4-2.7,2.7
	c-0.6,0.7-1.9,1.6-2.7,2.4c-0.5,0.5-0.7,1-1.2,1.4c-0.5,0.5-0.9,0.7-1.5,1.2c-0.8,0.8-1.7,2-2.5,2.6c-1,0.7-1.9,1.7-2.6,2.7
	c-0.4,0.4-2.1,1.9-2.7,2.4c-0.9,0.9-1.8,1.7-2.7,2.7c-1.1,1.1-4.4,4.6-5.4,5.2l-17.9,0c0.3-1.1,44.1-59.2,46.1-61.8l13.1,0v8.6
	c-2.5,0.3-6.4,2.4-6.3,5.3C310.3,200,315,200.8,316.4,201.7L316.4,201.7z M303.4,164.5c0.5,1.3,2.2,1.8,3.8,4c0.6,0.7,2.1,1.6,3.8,4
	c-0.5,0.9-1.7,1.9-2.5,2.5c-0.5-0.4-1.6-1.3-2.1-1.7c-0.7-0.7-1.1-1.4-1.9-2.1c-0.7-0.7-1.3-1-2-1.8c-1-1-0.7-1.3-2.1-2l-8,7.8
	l-2.6-2.7l7.9-7.9l-7.9-7.7l2.6-2.7l7.9,7.7l8-7.8l2.7,2.6L303.4,164.5z"/>
</svg>
