<?xml version="1.0" encoding="utf-8"?>
<!-- Generator: Adobe Illustrator 19.1.0, SVG Export Plug-In . SVG Version: 6.00 Build 0)  -->
<svg version="1.1" id="Слой_1" xmlns="http://www.w3.org/2000/svg" xmlns:xlink="http://www.w3.org/1999/xlink" x="0px" y="0px"
	 viewBox="0 0 595 842" style="enable-background:new 0 0 595 842;" xml:space="preserve">
<style type="text/css">
	.st0{fill-rule:evenodd;clip-rule:evenodd;}
	.st1{fill-rule:evenodd;clip-rule:evenodd;fill:#5689B8;}
	.st2{fill-rule:evenodd;clip-rule:evenodd;fill:none;stroke:#FFFFFF;stroke-width:0.2154;stroke-miterlimit:10;}
	.st3{fill-rule:evenodd;clip-rule:evenodd;fill:#D24A43;}
</style>
<path class="st0" d="M368.4,125.8l13.8-23.3v27.7H372v13.6h33.8v-13.6h-10.2V96.9h11.2V83.3h-28.7l-9.7,16.6v4.2l10.9-18.7h25.5v9.4
	h-11.2v37.5h10.2v9.4h-29.7v-9.4h10.2V94.9l-15.9,26.9V125.8z M330,83.3v13.3c0.1,0.1,0.1,0.2,0.2,0.3h10v33.3H330v13.6h27.7
	l10.7-18v-4.1l-11.8,20h-24.5v-9.4h10.2V94.8h-10.2v-9.4h30.5v9.4h-11.2v38.4l16.9-29.2v-4.2l-14.8,25.6V96.9h11.2V83.3H330
	L330,83.3z M230.8,143.6v-2.1h6.7c1,0,2-0.1,3-0.1c0.6-0.1,1.4-0.1,2-0.3l1.5-0.3c0.8-0.2,1.5-0.4,2.3-0.7l1.5-0.6l0.7-0.4l0.6-0.4
	l0.7-0.4l0.6-0.5l0.6-0.6l0.6-0.6l0.5-0.6l0.5-0.7l0.4-0.8l0.4-0.9l0.4-0.9l0.3-1l0.1-1.1l0.1-1.2l0.1-1.2c0-0.8-0.1-1.6-0.1-2.4
	c-0.1-0.7-0.1-1.4-0.3-2.1c-0.1-0.6-0.4-1.3-0.5-1.9c-0.2-0.5-0.4-1.1-0.6-1.6c-0.3-0.5-0.5-0.9-0.9-1.4c-0.3-0.4-0.6-0.8-0.9-1.2
	c-0.4-0.4-0.6-0.6-1-1c-0.4-0.3-0.7-0.6-1.1-0.9c-0.8-0.5-1.5-1-2.4-1.4l-2.6-1.2c0.9-0.6,1.9-1.2,2.7-1.9c0.4-0.3,0.7-0.6,1-0.9
	c0.5-0.6,0.9-1.1,1.4-1.7c0.2-0.4,0.5-0.7,0.6-1.1c0.4-0.7,0.8-1.4,1-2.2c0.2-0.6,0.4-1.1,0.4-1.7c0.2-0.8,0.3-1.7,0.4-2.5
	c0-0.9,0-1.7-0.1-2.5l-0.2-1.6l-0.4-1.5l-0.5-1.4l-0.6-1.3l-0.7-1.2l-0.9-1.2l-1-1.1l-1.2-0.9l-1.3-0.8l-1.4-0.8l-1.5-0.6l-1.7-0.5
	l-1.8-0.4l-1.9-0.2l-2.1-0.1h-3.6V83h3.7l2.2,0.1l2.2,0.3l1,0.1l0.9,0.2l0.9,0.2l0.9,0.3l0.9,0.4l0.9,0.4l0.9,0.4l0.8,0.4l0.7,0.5
	l0.7,0.5l0.7,0.5l0.6,0.6l0.6,0.6l0.6,0.6l0.6,0.6l0.5,0.6l0.4,0.7l0.4,0.7l0.4,0.8l0.4,0.7l0.3,0.9l0.3,0.8l0.2,0.9l0.1,0.9
	l0.1,0.9l0.1,0.9c0.1,0.7,0.1,1.5,0.1,2.3s-0.1,1.6-0.2,2.4s-0.3,1.6-0.5,2.3c-0.2,0.6-0.4,1.2-0.6,1.9c-0.4,0.7-0.7,1.4-1.2,2.1
	c-0.3,0.4-0.6,0.8-0.9,1.2c-0.6,0.7-1.3,1.4-2,2c1.2,0.6,2.2,1.4,3.2,2.2l0.9,0.8c0.4,0.4,0.7,0.9,1.1,1.3c0.4,0.6,0.6,1.1,1,1.6
	c0.3,0.6,0.6,1.2,0.8,1.8l0.4,1.4l0.4,1.4l0.3,1.5l0.1,1.7l0.1,1.9l-0.1,1.4l-0.1,1.3l-0.2,1.2l-0.3,1.1l-0.4,1.1l-0.4,1l-0.6,0.9
	l-0.6,0.9l-0.6,0.8l-0.6,0.7l-0.7,0.6l-0.8,0.6l-0.8,0.5l-0.8,0.5l-0.9,0.4l-0.9,0.4l-0.8,0.4l-1.7,0.5l-1.7,0.4
	c-0.7,0.1-1.5,0.2-2.3,0.4c-1,0.1-2,0.1-3,0.2h-0.8H230.8L230.8,143.6z M230.8,132.1h3.7c1.3,0,2.5,0,3.8-0.1
	c0.6-0.1,1.1-0.2,1.7-0.4c0.4-0.1,0.8-0.3,1.2-0.4c0.4-0.2,0.7-0.4,1.1-0.6l0.7-0.6l0.6-0.7l0.5-0.8l0.2-0.4l0.1-0.5l0.2-1l0.1-1.2
	l-0.1-1.2l-0.1-1.1l-0.3-0.9l-0.4-0.9l-0.5-0.7c-0.3-0.4-0.6-0.6-0.9-0.9l-0.6-0.5c-0.4-0.2-0.8-0.4-1.2-0.6
	c-0.4-0.2-0.8-0.3-1.2-0.4c-0.6-0.1-1.2-0.3-1.7-0.4c-0.9-0.1-1.8-0.1-2.7-0.1h-4.1v2.1h4h0.9c1.3,0.1,2.4,0.2,3.7,0.6
	c0.4,0.1,0.6,0.2,0.9,0.4c0.4,0.3,0.8,0.6,1.2,0.9c0.1,0.2,0.4,0.4,0.5,0.7c0.1,0.3,0.3,0.6,0.4,0.9c0.1,0.4,0.2,0.8,0.2,1.2
	c0.1,0.4,0.1,0.9,0.1,1.4c-0.1,0.4-0.1,0.8-0.2,1.2c-0.1,0.3-0.2,0.6-0.4,0.9c-0.1,0.2-0.4,0.4-0.5,0.6c-0.2,0.2-0.4,0.4-0.7,0.5
	c-0.3,0.2-0.5,0.3-0.8,0.4c-0.7,0.2-1.3,0.4-2,0.5c-1.1,0.1-2.2,0.1-3.2,0.1h-4V132.1L230.8,132.1z M230.8,109h2.8
	c1.2,0,2.4-0.2,3.6-0.6l0.8-0.4c0.4-0.1,0.7-0.4,1.1-0.6l0.7-0.5l0.6-0.7l0.6-0.9l0.3-0.4l0.2-0.5l0.1-0.6l0.1-0.6l0.1-0.6l0.1-0.6
	c0-0.6,0-1.1,0-1.6c-0.1-0.6-0.2-1.2-0.4-1.8c-0.1-0.4-0.3-0.6-0.4-0.9c-0.1-0.3-0.4-0.6-0.6-0.8c-0.2-0.3-0.5-0.5-0.7-0.8
	c-0.4-0.2-0.6-0.4-1-0.6c-0.4-0.2-0.8-0.4-1.2-0.5c-0.5-0.1-0.9-0.2-1.4-0.3c-0.7-0.1-1.4-0.1-2.2-0.2h-3.4v2.1h3.4l1,0.1
	c0.8,0.1,1.5,0.2,2.2,0.5l0.6,0.2c0.5,0.3,0.9,0.5,1.2,1c0.1,0.1,0.2,0.3,0.3,0.5c0.5,1.2,0.5,2.6,0.3,3.9l-0.2,0.8
	c-0.1,0.4-0.3,0.6-0.5,1c-0.2,0.2-0.4,0.5-0.6,0.7c-0.3,0.2-0.5,0.4-0.8,0.6l-0.6,0.3c-1.1,0.5-2.2,0.7-3.5,0.7h-2.8V109z M230.8,83
	v2.1h-32.9v9.4h10.1v37.5h-10.1v9.4h32.9v2.1h-35V130h10.1V96.7h-10.1V83H230.8L230.8,83z M230.8,94.6h-13.9V109h13.9V107h-11.8
	V96.7h11.8V94.6L230.8,94.6z M230.8,117.6h-13.9v14.5h13.9V130h-11.8v-10.3h11.8V117.6z"/>
<g>
	<path class="st1" d="M288.6,78.4h9.2v21.4v9.2h-9.2h-14.9l-8.2,22.7l-8.6-3.2l10.3-27.9l0.2-0.2h21.2V96h-22.8v-8.4h22.8V78.4
		L288.6,78.4z M293.2,62.7c3.7,0,6.6,3,6.6,6.7s-2.9,6.6-6.6,6.6s-6.7-3-6.7-6.6S289.5,62.7,293.2,62.7z"/>
	<path class="st2" d="M288.6,78.4h9.2v21.4v9.2h-9.2h-14.9l-8.2,22.7l-8.6-3.2l10.3-27.9l0.2-0.2h21.2V96h-22.8v-8.4h22.8V78.4
		L288.6,78.4z M293.2,62.7c3.7,0,6.6,3,6.6,6.7s-2.9,6.6-6.6,6.6s-6.7-3-6.7-6.6S289.5,62.7,293.2,62.7z"/>
</g>
<path class="st3" d="M303.2,82.3c16.7,0,30.3,13.7,30.3,30.4S319.9,143,303.2,143s-30.3-13.6-30.3-30.3c0-0.1,0-0.3,0-0.4h10.3
	c0,0.2,0,0.4,0,0.6c0,11.1,9.1,20.2,20.1,20.2c11.1,0,20.1-9.1,20.1-20.2s-9-20.2-20.1-20.2c-1.1,0-2.1,0.1-3.1,0.2V82.5
	C301.2,82.4,302.2,82.3,303.2,82.3z"/>
</svg>
