<?xml version="1.0" encoding="UTF-8"?>
<svg xmlns="http://www.w3.org/2000/svg" xml:space="preserve" width="210mm" height="297mm" version="1.1" style="shape-rendering:geometricPrecision; text-rendering:geometricPrecision; image-rendering:optimizeQuality; fill-rule:evenodd; clip-rule:evenodd"
viewBox="0 0 21000 29700"
 xmlns:xlink="http://www.w3.org/1999/xlink">
 <defs>
  <style type="text/css">
   <![CDATA[
    .str0 {stroke:#FEFEFE;stroke-width:31.03}
    .str1 {stroke:#2B2A29;stroke-width:21.47}
    .fil2 {fill:none}
    .fil1 {fill:#B2B3B3}
    .fil0 {fill:#2B2A29}
   ]]>
  </style>
   <clipPath id="id0">
    <path d="M8706 13944c-24,527 21,988 73,1318 -108,-8 -275,-26 -476,-59 -347,-360 -636,-835 -843,-1385 406,66 857,118 1246,126l0 0zm181 1846l0 -1c-1,-4 -8,-30 -19,-74 -207,-112 -402,-260 -583,-438 -194,-33 -415,-83 -640,-157 368,290 788,518 1242,670zm-2448 -2206l-1 0c251,552 620,1039 1075,1428l0 0c239,79 474,134 682,172 -339,-363 -622,-837 -827,-1382 -400,-69 -746,-151 -929,-218zm2352 1752c21,127 47,233 88,329 -160,-96 -341,-234 -484,-371 159,23 295,35 396,42l0 0z"/>
   </clipPath>
   <clipPath id="id1">
    <path d="M8833 11814c1,471 35,911 66,1228 -100,259 -173,537 -189,819 0,0 -299,-11 -649,-46 -210,-21 -439,-57 -633,-86 -201,-566 -316,-1207 -320,-1883 551,-11 1200,-23 1725,-32l0 0zm786 -9l0 -2 -25 0c-159,2 -394,5 -669,10 -4,387 15,739 40,1069 207,-471 490,-864 654,-1077zm-3217 1698c-215,-499 -334,-1032 -334,-1610l-2 -9c178,-3 531,-29 948,-37 7,668 123,1304 323,1868 -357,-57 -701,-127 -935,-212l0 0z"/>
   </clipPath>
   <clipPath id="id2">
    <path d="M9829 10833c70,206 162,373 170,442 16,139 -184,280 -248,365 -9,12 -35,44 -74,92 -154,0 -420,0 -751,1 5,-279 23,-577 60,-900l843 0zm-940 0c-3,22 -5,44 -8,67 -32,274 -46,558 -48,834 -491,3 -1109,9 -1722,25 19,-321 62,-630 126,-926l1652 0zm-1753 0c-62,296 -103,607 -121,929 -325,9 -647,20 -946,35 7,-335 51,-656 131,-964l936 0z"/>
   </clipPath>
   <clipPath id="id3">
    <path d="M11311 10013l0 -238c-3,-56 -8,-110 -14,-163l0 0c-110,-2 -220,-3 -328,-4l0 277c256,260 242,682 242,682 60,-194 91,-379 100,-554zm-2325 820c25,-220 58,-452 103,-697 32,-182 74,-354 121,-514 513,-23 1073,-34 1662,-32 0,80 -2,167 -2,214 -83,-56 -185,-96 -313,-111 -120,-15 -302,4 -455,98 -445,276 -387,709 -273,1042l-843 0zm-1749 0c83,-386 203,-747 354,-1077 424,-57 936,-101 1510,-129 -109,402 -164,800 -212,1206l-1652 0zm-1037 0c74,-284 178,-556 310,-815 196,-92 531,-182 961,-245 -143,325 -256,681 -335,1060l-936 0z"/>
   </clipPath>
   <clipPath id="id4">
    <path d="M11279 9497l0 -5c-27,-148 -65,-281 -107,-397l-203 0 0 399c102,0 206,1 310,3zm-401 -402c-2,133 -4,274 -6,399 -581,-1 -1132,13 -1636,38 49,-157 103,-303 159,-437l1483 0zm-1600 0c-60,151 -110,299 -152,443 -578,32 -1091,80 -1513,139 97,-207 207,-401 328,-582l1337 0zm-1442 0c-126,186 -238,386 -336,599 -427,65 -750,142 -940,227 169,-313 358,-583 584,-826l692 0z"/>
   </clipPath>
   <clipPath id="id5">
    <path d="M10156 7754l-104 0c-499,49 -947,231 -1334,517 481,-81 879,-100 1062,-105l8 0c48,-189 190,-338 367,-412l1 0zm-2356 760c549,-384 1040,-606 1690,-695 -389,101 -597,244 -903,476 -231,43 -577,121 -787,219l0 0zm3169 581l0 -428c46,74 130,223 203,428l-203 0zm-1574 0c132,-320 274,-570 380,-736 18,325 287,583 616,583 208,0 383,-91 493,-244 -1,97 -4,242 -6,397l-1483 0zm-1454 0c187,-277 403,-520 645,-720 345,-66 733,-116 1136,-123 -187,279 -332,565 -444,843l-1337 0zm-797 0c144,-154 303,-298 480,-435 231,-106 521,-194 830,-259 -233,198 -439,431 -618,694l-692 0z"/>
   </clipPath>
 </defs>
 <g id="Слой_x0020_1">
  <metadata id="CorelCorpID_0Corel-Layer"/>
  <polygon class="fil0" points="7576,18016 7865,18016 7865,16724 7576,16724 "/>
  <polygon class="fil0" points="9110,18016 9455,18016 9781,16724 9519,16724 9288,17720 9284,17720 9049,16724 8696,16724 8459,17720 8454,17720 8233,16724 7962,16724 8280,18016 8622,18016 8870,16957 8875,16957 "/>
  <path class="fil0" d="M9874 18016l481 0c281,0 491,-128 491,-363 0,-217 -176,-287 -298,-309l0 -4c103,-31 262,-92 262,-298 0,-218 -149,-318 -475,-318l-461 0 0 1292zm280 -578l152 0c178,0 251,86 251,199 0,120 -86,198 -242,198l-161 0 0 -397zm0 -540l143 0c138,0 232,64 232,174 0,105 -83,192 -226,192l-149 0 0 -366z"/>
  <polygon class="fil0" points="10981,18016 11270,18016 11270,17453 11756,17453 11756,17264 11270,17264 11270,16912 11779,16912 11779,16724 10981,16724 "/>
  <path class="fil1" d="M11191 7982c582,601 1117,1742 931,2571 -237,990 -673,1370 -1340,2157 -667,787 -1634,1466 -1255,3081 81,343 -111,283 -211,49 -498,-1094 -246,-2253 -84,-2686 433,-1003 736,-1252 967,-1513 232,-262 125,-459 31,-655 -313,-601 -49,-877 150,-937 198,-60 666,0 432,919 -48,192 114,390 499,54 312,-294 678,-1472 -313,-2901 -60,-94 -3,-333 193,-139l0 0z"/>
  <path class="fil1" d="M12426 15239c0,0 437,-1093 -296,-1890 -469,-469 -1322,-401 -1995,909 -456,969 -148,1654 -148,1654 60,156 214,208 200,-48 -80,-1258 665,-2419 1394,-2235 729,184 705,1105 665,1578 -12,115 86,260 180,32l0 0z"/>
  <path class="fil0" d="M11278 7908c583,601 1118,1742 931,2571 -236,989 -672,1369 -1339,2156 -667,787 -1634,1466 -1256,3082 81,342 -111,282 -210,48 -498,-1093 -246,-2253 -84,-2685 433,-1003 736,-1253 967,-1514 231,-261 124,-458 30,-655 -312,-600 -48,-877 150,-937 199,-60 667,0 433,919 -48,193 114,391 498,54 313,-294 679,-1471 -312,-2901 -60,-93 -3,-332 192,-138l0 0z"/>
  <path class="fil0" d="M12514 15164c0,0 436,-1093 -297,-1890 -468,-469 -1321,-400 -1994,909 -456,969 -148,1654 -148,1654 60,156 214,208 200,-48 -80,-1257 665,-2419 1394,-2235 729,185 704,1106 665,1578 -12,115 86,260 180,32l0 0z"/>
  <path class="fil0" d="M9956 8317c0,-251 204,-455 455,-455 251,0 455,204 455,455 0,252 -204,455 -455,455 -251,0 -455,-203 -455,-455l0 0z"/>
  <path class="fil2 str0" d="M9984 8475c123,42 559,211 865,-281"/>
  <path class="fil2 str0" d="M10607 7907c14,196 -52,288 -45,474 6,144 128,134 247,157"/>
  <path class="fil2 str0" d="M10269 7885c4,335 127,575 311,855"/>
  <path class="fil2 str0" d="M10212 8727c31,-53 57,-87 57,-150 0,-194 -219,-225 -290,-404"/>
  <g style="clip-path:url(#id0)">
   <image transform="matrix(1.57502 -0 -0 -1.57502 6431.65 15796)" x="0" y="0" width="1560" height="1405" xlink:href="IWBF Logo (on size-shirt)_Images\IWBF Logo (on size-shirt)_ImgID1.png"/>
  </g>
  <g style="clip-path:url(#id1)">
   <image transform="matrix(1.57502 -0 -0 -1.57502 6063.6 13867.8)" x="0" y="0" width="2258" height="1313" xlink:href="IWBF Logo (on size-shirt)_Images\IWBF Logo (on size-shirt)_ImgID2.png"/>
  </g>
  <g style="clip-path:url(#id2)">
   <image transform="matrix(1.57502 -0 -0 -1.57502 6063.6 11799.5)" x="0" y="0" width="3332" height="638" xlink:href="IWBF Logo (on size-shirt)_Images\IWBF Logo (on size-shirt)_ImgID3.png"/>
  </g>
  <g style="clip-path:url(#id3)">
   <image transform="matrix(1.57502 -0 -0 -1.57502 6063.6 10871.4)" x="0" y="0" width="3332" height="815" xlink:href="IWBF Logo (on size-shirt)_Images\IWBF Logo (on size-shirt)_ImgID4.png"/>
  </g>
  <g style="clip-path:url(#id4)">
   <image transform="matrix(1.57502 -0 -0 -1.57502 6555.67 9923.24)" x="0" y="0" width="3000" height="549" xlink:href="IWBF Logo (on size-shirt)_Images\IWBF Logo (on size-shirt)_ImgID5.png"/>
  </g>
  <g style="clip-path:url(#id5)">
   <image transform="matrix(1.57502 -0 -0 -1.57502 6555.67 9135.14)" x="0" y="0" width="3000" height="879" xlink:href="IWBF Logo (on size-shirt)_Images\IWBF Logo (on size-shirt)_ImgID6.png"/>
  </g>
  <path class="fil0" d="M7108 11891c356,-4 1110,-17 1726,-29l-1 -48 0 0c-525,9 -1174,21 -1725,32 0,15 0,30 0,45z"/>
  <path class="fil0" d="M7183 11844c1,687 113,1332 312,1895l-67 -10c-201,-566 -316,-1207 -320,-1883l75 -2z"/>
  <path class="fil0" d="M11302 9654c-112,-1 -223,-3 -333,-3l1 -58c108,1 216,2 326,4l0 0c2,19 4,38 6,57z"/>
  <path class="fil0" d="M11001 9920l1 -327 -32 0 -1 292c11,11 22,23 32,35z"/>
  <path class="fil0" d="M8798 15375c-69,-6 -201,-19 -361,-42 -15,-13 -29,-26 -42,-39 159,23 295,35 396,42l0 0c2,13 4,26 7,39z"/>
  <path class="fil0" d="M8496 15308c111,99 227,186 347,259 11,34 23,67 36,98 -160,-96 -341,-234 -484,-371 35,5 68,10 101,14z"/>
  <path class="fil0" d="M7475 13857c323,51 729,97 1229,127l2 -40 0 0c-389,-8 -840,-60 -1246,-126 5,13 10,26 15,39z"/>
  <path class="fil0" d="M7528 13829c210,561 508,1037 868,1389 -30,-5 -61,-9 -93,-15 -347,-360 -636,-835 -843,-1385 22,3 45,7 68,11z"/>
  <path class="fil0" d="M9084 9690c-579,26 -1095,68 -1519,124 8,-19 17,-39 26,-58l0 0c424,-57 936,-101 1510,-129 -6,21 -11,42 -17,63z"/>
  <path class="fil0" d="M7666 9746c-266,589 -433,1274 -475,2011l-80 2c45,-739 213,-1420 480,-2003l0 0c25,-3 49,-7 75,-10z"/>
  <path class="fil0" d="M9687 8305c-424,12 -818,57 -1167,126 22,-19 44,-38 66,-56 345,-66 733,-116 1136,-123l0 0c-12,17 -24,35 -35,53z"/>
  <path class="fil0" d="M8680 8357c-402,330 -739,777 -992,1310 -25,4 -50,7 -75,10 246,-525 574,-971 973,-1302 31,-6 62,-12 94,-18z"/>
  <path class="fil0" d="M9295 9529c105,-331 256,-679 489,-1094 -5,-25 -8,-50 -9,-76l0 0c-150,235 -372,638 -539,1173l59 -3z"/>
  <path class="fil0" d="M8968 11733c6,-202 21,-422 47,-652 65,-556 116,-996 253,-1462l-58 3 0 0c-47,160 -89,332 -121,514 -110,604 -154,1128 -163,1597l42 0z"/>
  <path class="fil0" d="M10872 9650c-596,-2 -1162,8 -1679,30 5,-19 11,-39 17,-58l0 0c513,-23 1073,-34 1662,-32l0 60z"/>
  <path class="fil0" d="M9007 12791c-21,-182 -50,-534 -41,-979l-41 1c-4,387 15,739 40,1069 14,-31 28,-61 42,-91z"/>
  <path class="fil0" d="M8925 11860c270,-5 508,-10 662,-13 12,-15 23,-30 34,-44l0 0c-159,1 -405,5 -696,10l0 47z"/>
  <path class="fil0" d="M11002 9494l3 -765c-13,-24 -26,-45 -36,-62l0 827 33 0z"/>
  <path class="fil0" d="M10075 7753c-462,69 -882,241 -1250,501 -35,5 -71,11 -107,17 387,-286 836,-468 1336,-517l0 0 21 -1z"/>
  <path class="fil0" d="M8062 8418c312,-193 653,-345 1015,-447 120,-60 250,-109 413,-152 -650,89 -1141,311 -1690,695l0 0c74,-35 165,-67 262,-96z"/>
  <line class="fil2 str1" x1="8843" y1="13874" x2="8843" y2= "13874" />
  <path class="fil0" d="M7622 8662c14,-7 28,-13 42,-20 224,-98 499,-180 790,-241 -23,19 -45,38 -66,58 -373,83 -686,194 -913,322 47,-40 96,-80 147,-119z"/>
  <path class="fil0" d="M7446 9831c-448,65 -782,147 -966,246 10,-20 20,-41 31,-61 196,-92 530,-180 960,-243 -8,19 -16,38 -25,58z"/>
  <path class="fil0" d="M6450 13612c129,49 419,145 934,230 -5,-13 -11,-26 -16,-40 -401,-69 -748,-152 -931,-219 5,10 9,19 13,29z"/>
  <path class="fil0" d="M8264 15273l21 4c11,11 22,21 33,32 -191,-29 -408,-72 -600,-133 -25,-19 -50,-38 -73,-56 217,71 430,120 619,153z"/>
  <path class="fil0" d="M6147 11879l1 -8c-29,1 -56,1 -79,2l-1 20c0,578 119,1111 334,1610l0 0c29,11 61,21 93,31 -223,-505 -348,-1065 -348,-1655l0 0zm2 -86c13,-657 180,-1276 467,-1821 -39,14 -74,29 -105,44 -275,539 -430,1137 -442,1781l0 0 80 -4zm517 -1913c288,-514 683,-959 1157,-1301 -70,25 -137,52 -199,81 -457,353 -788,749 -1064,1261l0 0c32,-14 67,-28 106,-41zm2183 5825c-369,-127 -713,-307 -1023,-530 -60,-17 -120,-35 -181,-55 368,290 861,547 1316,699l0 0c0,0 -23,-26 -61,-85 -17,-9 -34,-19 -51,-29zm-1171 -642c-485,-385 -879,-880 -1146,-1448 -35,-11 -67,-22 -95,-32 252,552 621,1040 1076,1429l0 0c56,18 110,35 165,51z"/>
  <path class="fil0" d="M6068 11959c50,-1 26,-4 26,-4 0,0 -11,0 -26,-2l0 6zm0 -44c232,-14 816,-22 860,-22 19,0 49,0 87,0 0,-15 -1,-30 -1,-46 -417,8 -766,23 -945,26l-1 20 0 22z"/>
 </g>
</svg>
