<?xml version="1.0" encoding="UTF-8"?>
<svg xmlns="http://www.w3.org/2000/svg" xml:space="preserve" width="210mm" height="297mm" version="1.1" style="shape-rendering:geometricPrecision; text-rendering:geometricPrecision; image-rendering:optimizeQuality; fill-rule:evenodd; clip-rule:evenodd"
viewBox="0 0 21000 29700"
 xmlns:xlink="http://www.w3.org/1999/xlink">
 <defs>
  <style type="text/css">
   <![CDATA[
    .fil0 {fill:#056943}
    .fil3 {fill:#0B6B45}
    .fil15 {fill:#136343}
    .fil8 {fill:#156847}
    .fil5 {fill:#231F20}
    .fil17 {fill:#477859}
    .fil31 {fill:#8F8F75}
    .fil13 {fill:#96BAA8}
    .fil10 {fill:#B18872}
    .fil35 {fill:#B1B4AD}
    .fil14 {fill:#B74738}
    .fil37 {fill:#B8E6D0}
    .fil1 {fill:#BC2C32}
    .fil4 {fill:#BE292E}
    .fil34 {fill:#CAE8D9}
    .fil16 {fill:#CDD5CA}
    .fil27 {fill:#D29488}
    .fil20 {fill:#D3AA94}
    .fil32 {fill:#D5D39F}
    .fil29 {fill:#D65B56}
    .fil25 {fill:#E7BA56}
    .fil22 {fill:#E8B1A8}
    .fil12 {fill:#E8D6CB}
    .fil18 {fill:#ED9087}
    .fil30 {fill:#EFC871}
    .fil11 {fill:#FBBA23}
    .fil2 {fill:#FCB61A}
    .fil21 {fill:#FCB6AB}
    .fil6 {fill:#FCBA1B}
    .fil24 {fill:#FCD9D5}
    .fil28 {fill:#FDC5B9}
    .fil36 {fill:#FDD6CB}
    .fil7 {fill:#FDD877}
    .fil9 {fill:#FDE9B6}
    .fil26 {fill:#FEBBB5}
    .fil33 {fill:#FECBC4}
    .fil23 {fill:#FEE4DC}
    .fil19 {fill:#FEFBC6}
   ]]>
  </style>
 </defs>
 <g id="Слой_x0020_1">
  <metadata id="CorelCorpID_0Corel-Layer"/>
  <path class="fil0" d="M15928 12560c89,-30 81,-47 38,38 97,69 138,141 186,251 141,75 289,353 361,526 65,19 90,-122 45,90l115 263c35,-529 -330,-2015 -510,-2556 -288,-867 -555,-1309 -1100,-2026 -843,-1109 -2738,-1873 -4070,-2149 -3413,-707 -5423,29 -8641,-2209 -297,-206 -604,-469 -899,-656 822,1755 3705,3541 5468,4235 2812,1107 4072,608 5987,1311 622,229 1059,561 1611,797 -551,-415 -913,-972 -1897,-1399 -1748,-757 -5250,-580 -7696,-2283 225,25 580,143 821,197 291,66 575,120 868,172 1865,328 3404,368 5251,1048 2509,923 3203,1890 4062,4350z"/>
  <path class="fil1" d="M7236 20647c128,22 308,120 390,204 -132,-35 -307,-107 -390,-204zm-77 118c-126,-34 -184,-75 -259,-172 121,55 182,75 259,172zm77 -118c-150,-32 -341,-172 -407,-299l407 299zm6287 -392c-232,316 -1659,829 -2076,850 235,-117 777,-245 1090,-372 222,-90 848,-450 986,-478zm0 0c60,-87 -17,-46 118,-71l-118 71zm-6702 107c-136,-86 -268,-214 -346,-349 133,62 273,219 346,349zm6820 -178c60,-80 164,-156 274,-193 -56,85 -160,158 -274,193zm274 -193c53,-94 56,-77 166,-138 -67,106 -33,82 -166,138zm-7688 -271c95,48 144,143 214,248 -123,-64 -155,-116 -214,-248zm8122 -73c-58,101 -143,153 -259,176l259 -176zm-8237 -81c83,55 76,53 115,154 -94,-49 -79,-34 -115,-154zm0 0c-112,-68 -243,-295 -288,-445 113,104 241,295 288,445zm8250 59c68,-143 390,-461 538,-540 -114,179 -360,429 -538,540zm749 -795c-57,132 -61,142 -179,208 65,-118 74,-161 179,-208zm-9386 5c33,91 65,154 97,246 -136,-102 -197,-335 -233,-511 99,106 38,6 98,150 4,9 32,97 38,115zm9386 -5c46,-113 141,-249 232,-309 -40,116 -141,262 -232,309zm232 -309l73 -111c-28,123 17,52 -73,111zm821 -3527c-87,-113 -54,-71 -96,-215 -20,-69 -44,-131 -70,-199 -61,-155 -127,-246 -171,-407 185,175 297,559 337,821zm-595 -1219c107,66 199,228 234,374l-234 -374zm-540 -196c131,37 143,108 212,246 -96,-64 -158,-144 -212,-246zm540 196c-88,-47 -141,-148 -209,-246 128,62 152,112 209,246zm-658 -657c131,55 188,88 249,211 -103,-70 -199,-118 -249,-211zm0 0l-340 -234c124,29 281,139 340,234zm-340 -234l-528 -258c159,-6 429,142 528,258zm-427 -734c182,20 632,245 734,386 123,35 54,-12 109,80 107,40 151,52 199,144 256,121 574,532 737,781 208,315 347,657 443,1023 195,744 131,1850 -200,2515 -112,326 -489,1166 -750,1331 67,-306 515,-831 590,-1284 368,-1137 155,-1274 138,-2130 23,31 12,-26 59,113 190,556 -11,1454 -93,1928 149,-217 295,-796 261,-1065 -134,-687 317,-1326 -1013,-2681 -584,-596 -1406,-874 -2216,-1009 -86,-14 -142,-5 -200,-15l-188 -73c-247,-45 -794,-7 -1003,21 427,-34 864,14 1276,74 333,48 494,103 803,198 150,46 170,18 213,139 -292,-15 -1300,-437 -1547,-276l103 -2c405,40 696,140 1068,267 241,60 623,289 833,447 149,113 193,92 220,192 121,55 258,211 309,325l-280 -226c-173,-69 -403,-260 -596,-358 -196,-98 -487,-139 -623,-284 -141,7 -666,-124 -879,-150 -310,-38 -723,39 -970,-5 825,16 1431,79 2161,437 420,207 1188,782 1334,1209 165,123 323,576 360,788l33 132c312,443 9,1805 -201,2303 -127,302 -295,599 -481,872l-296 476c-400,887 -2742,2077 -3868,2122 -290,-5 -583,64 -904,62 -305,-2 -613,-3 -910,-79l266 -14c-772,-34 -1869,-594 -2416,-1138 -83,-83 -294,-397 -369,-522 -118,-197 -197,-396 -266,-623 -170,-556 -151,-1007 -74,-1575 -191,188 -38,414 -177,610 44,408 7,653 109,1078 91,385 224,526 346,855 -365,-227 -634,-982 -711,-1423 -67,-386 62,-498 -101,-594l-3 880 21 114c19,390 382,977 617,1290 135,59 48,28 180,150l471 481c-63,94 -7,54 -117,70 775,629 1096,798 2086,1034 -97,-72 -667,-228 -876,-334 -137,-70 -646,-368 -736,-452 156,37 546,243 757,316 282,98 553,178 850,234 599,111 1478,168 2079,55 389,-68 765,-104 1150,-218 287,-84 814,-312 1053,-344 2221,-1010 4014,-3163 3797,-5731l-240 -930 -220 -457 -234 -343c-99,-47 -116,-92 -161,-206l-7 -18c-132,-31 -178,-99 -285,-211 -91,-96 -160,-151 -199,-251l-24 -5c-266,-74 -1096,-862 -2694,-896 9,5 22,11 30,13 241,93 1092,153 1333,377z"/>
  <path class="fil2" d="M5093 17008c106,136 58,275 137,550 48,165 110,323 163,488 22,-154 -10,-143 64,-297l-84 -42 12 -56c-349,-526 -15,-1849 134,-1933 -73,493 -188,679 -164,1244 155,-1736 1340,-3292 2704,-4295 1600,-1177 3590,-1673 5555,-1355l23 -107c-177,-5 -678,-265 -1577,-290 -2729,-78 -5925,1877 -6740,4460 -79,251 -135,481 -179,741 -49,298 2,638 -48,892z"/>
  <path class="fil3" d="M15225 12302c-97,-45 -144,-65 -194,-148 115,42 148,49 194,148zm-194 -148c-122,-37 -163,-66 -229,-160 114,26 175,75 229,160zm-4824 -236c-55,48 74,6 -98,60 -19,6 -53,2 -65,2l163 -62zm4595 76c-125,-29 -124,-36 -211,-128 122,41 138,38 211,128zm-4595 -76c83,-78 248,-122 384,-116 -54,46 59,-9 -70,48 0,0 -85,28 -87,29 -104,32 -118,37 -227,39zm4162 -166l183 72c-142,0 -95,31 -183,-72zm-8878 5175c1,166 -44,188 47,290l16 -103c12,-171 81,-351 132,-518 48,-157 93,-380 199,-471 1,-129 32,-226 111,-307 10,-135 25,-197 118,-272 15,-129 68,-229 153,-323l22 -53c42,-121 38,-136 130,-206 29,-151 195,-394 312,-459 38,-123 26,-101 122,-171l10 -20c74,-122 69,-143 184,-210l47 -61 410 -409 60 -48c66,-108 130,-147 249,-196 15,-93 64,-90 153,-120 50,-92 38,-76 158,-114 49,-85 -25,-45 105,-79 55,-80 126,-130 234,-155 168,-239 1252,-702 1575,-827 527,-205 1421,-437 2004,-436 -218,20 -458,3 -715,34 -235,28 -513,128 -736,109 290,-259 1901,-300 2109,-250l-780 38c387,51 439,-49 1210,101 368,71 737,200 1102,269 -242,-181 -642,-168 -874,-319 531,40 1798,616 2117,1015l24 5 58 16c-104,-123 -287,-247 -332,-375 275,147 569,555 758,821l7 18c98,66 114,92 161,206 96,54 209,217 234,343 106,87 227,313 220,457 73,52 36,-27 103,121 14,30 34,115 43,148 83,305 26,398 102,215 -24,-383 -294,-989 -295,-1166 45,-212 20,-71 -45,-90 -86,-47 -19,31 -104,-96 -28,-42 -55,-102 -83,-147 -64,-108 -129,-172 -174,-283 -105,-48 -154,-134 -186,-251 43,-85 51,-68 -38,-38 -149,-26 -271,-218 -404,-323 -115,-89 -290,-195 -385,-286l-493 -220 -276 -155 -615 -173c-596,-157 -1234,-153 -1835,-121 468,12 843,6 1304,92 306,58 861,168 1081,359 -556,-145 -839,-308 -1469,-375 -1540,-164 -3076,344 -4368,1142 -1370,845 -2963,2729 -2977,4427z"/>
  <path class="fil4" d="M8463 12922c-69,101 -105,123 -234,155 -51,91 18,44 -105,79 -53,90 -39,75 -158,114 -50,88 -42,77 -153,120 -44,103 -136,146 -249,196l-60 48c-39,153 -61,103 -184,227 -120,121 -76,136 -226,182l-47 61c-60,129 -66,155 -184,210l-10 20c-29,81 -34,154 -122,171l-312 459c-27,134 -28,132 -130,206l-22 53c-18,136 -64,240 -153,323 -19,120 -49,195 -118,272 -11,124 -44,226 -111,307 21,215 -609,1990 113,2862 -39,-222 -102,-407 -132,-642 -37,-291 -10,-543 -39,-800 9,-300 152,-759 249,-1068l119 2c422,-1818 2432,-3565 4222,-4019 266,-198 1369,-310 1756,-336 307,-21 689,-5 993,37 257,36 680,158 899,157 267,91 1344,515 1407,814l51 -2c-52,-76 -93,-122 -169,-181 -126,-100 -127,-53 -168,-189 -104,-37 -145,-58 -199,-144l-109 -80 -734 -386c-323,-40 -608,-255 -1506,-323 -2303,-177 -3846,1025 -4175,1095z"/>
  <path class="fil0" d="M13561 10679c-1436,-1247 -3025,-718 -4732,-1016 -1206,-210 -2003,-664 -3023,-1263 -269,-158 -645,-418 -918,-535 528,939 2588,1837 3622,2117 949,257 1646,275 2622,240 1502,-55 1455,209 2429,457z"/>
  <path class="fil5" d="M16388 7832c-433,-47 -703,-29 -954,-448 -439,-732 397,-1618 1190,-1190 415,224 408,522 459,937 521,-1000 -1029,-2250 -2064,-1251 -1028,993 275,2513 1369,1952z"/>
  <path class="fil6" d="M13685 18809c339,-207 898,-862 1132,-1196 377,-536 618,-964 722,-1626 68,-335 36,-532 30,-865l-33 -132c-137,-109 -22,-70 -151,-140 -91,274 47,1207 -688,2374 -1172,1857 -3402,3071 -5613,2896 -216,-18 -493,-99 -686,-81l34 23c310,144 1143,239 1465,231 1085,-28 1651,-433 2089,-523 531,-109 1450,-835 1699,-961z"/>
  <path class="fil7" d="M15139 15552c109,-60 -6,-62 115,-23 -6,558 -407,1410 -736,1858 -972,1326 -2212,2150 -3821,2509l-809 115c-172,5 -215,43 -126,-64 -429,3 -899,70 -1325,8 -184,-27 -942,-270 -964,-269 160,244 909,461 1223,540 1004,252 2145,152 3123,-166 315,-102 1065,-360 1249,-581l-89 -32c149,-37 293,-178 433,-269 142,-93 281,-167 342,-327 -119,38 -43,31 -69,-42 -249,126 -1168,852 -1699,961 -438,90 -1004,495 -2089,523 -322,8 -1155,-87 -1465,-231l-34 -23c193,-18 470,63 686,81 2211,175 4441,-1039 5613,-2896 735,-1167 597,-2100 688,-2374 129,70 14,31 151,140 -37,-212 -195,-665 -360,-788 36,214 62,471 49,691 -14,231 -75,450 -86,659z"/>
  <path class="fil8" d="M14792 18120c-82,262 -799,887 -1049,1080 -431,332 -802,552 -1296,791 -516,249 -1050,408 -1618,506 -1083,187 -1423,-18 -1950,12l90 53c-196,-10 -535,-99 -734,-154 -91,-25 -548,-187 -592,-147 185,185 922,410 1196,472 623,141 980,97 1592,100 298,-104 703,-72 1453,-358 802,-306 1629,-801 2229,-1404 227,-229 695,-705 791,-1014l-112 63z"/>
  <path class="fil9" d="M5385 17651l-19 -478 66 257c25,-193 -8,-327 59,-503 14,-1698 1607,-3582 2977,-4427 1292,-798 2828,-1306 4368,-1142 630,67 913,230 1469,375 -220,-191 -775,-301 -1081,-359 -461,-86 -836,-80 -1304,-92 601,-32 1239,-36 1835,121 169,-13 -141,59 86,-9 193,-58 -45,53 68,-60l-272 -129 -23 107c-1965,-318 -3955,178 -5555,1355 -1364,1003 -2549,2559 -2704,4295 -24,-565 91,-751 164,-1244 -149,84 -483,1407 -134,1933z"/>
  <path class="fil10" d="M15539 15987l26 288c-74,403 -407,1209 -626,1513 39,51 135,-38 27,158 -28,51 -28,26 -101,67l-73 107 112 -63c-96,309 -564,785 -791,1014 -600,603 -1427,1098 -2229,1404 -750,286 -1155,254 -1453,358 24,1 157,2 161,3 145,26 42,-105 131,59 1126,-45 3468,-1235 3868,-2122l296 -476c186,-273 354,-570 481,-872 210,-498 513,-1860 201,-2303 6,333 38,530 -30,865z"/>
  <path class="fil11" d="M15139 15552c-74,987 -1188,2349 -1940,2952 -465,374 -959,679 -1507,925 -463,208 -1433,530 -1930,518 -89,107 -46,69 126,64l809 -115c1609,-359 2849,-1183 3821,-2509 329,-448 730,-1300 736,-1858 -121,-39 -6,-37 -115,23z"/>
  <path class="fil12" d="M10591 11802c223,19 501,-81 736,-109 257,-31 497,-14 715,-34 -583,-1 -1477,231 -2004,436 -323,125 -1407,588 -1575,827 329,-70 1872,-1272 4175,-1095 898,68 1183,283 1506,323 -241,-224 -1092,-284 -1333,-377 -8,-2 -21,-8 -30,-13 1598,34 2428,822 2694,896 -319,-399 -1586,-975 -2117,-1015 232,151 632,138 874,319 -365,-69 -734,-198 -1102,-269 -771,-150 -823,-50 -1210,-101l780 -38c-208,-50 -1819,-9 -2109,250z"/>
  <path class="fil13" d="M13822 19014c-68,259 -1293,873 -1503,966 -1235,547 -2834,721 -4109,223 -402,-157 -1215,-656 -1385,-1030 -34,-90 -451,-610 -539,-686 74,260 284,568 427,746 380,470 791,719 1335,986 196,97 737,218 831,290 527,-30 867,175 1950,-12 568,-98 1102,-257 1618,-506 494,-239 865,-459 1296,-791 250,-193 967,-818 1049,-1080 -138,39 -146,113 -244,226l-627 526c-119,113 -66,-7 -99,142z"/>
  <path class="fil14" d="M16371 15972c170,-277 -11,-1330 -135,-1671 -83,-228 -179,-452 -322,-641 -72,-94 -127,-181 -201,-261 -124,-131 -202,-113 -241,-267 -63,-299 -1140,-723 -1407,-814 -51,51 -21,68 -170,63 -17,0 -130,-36 -156,-43 -351,-96 -639,-107 -985,-144l188 73c58,10 114,1 200,15 810,135 1632,413 2216,1009 1330,1355 879,1994 1013,2681z"/>
  <path class="fil15" d="M13068 19479c-184,221 -934,479 -1249,581 -978,318 -2119,418 -3123,166 -314,-79 -1063,-296 -1223,-540 -260,-108 -442,-341 -648,-513 170,374 983,873 1385,1030 1275,498 2874,324 4109,-223 210,-93 1435,-707 1503,-966l-56 25c-64,123 -542,428 -698,440z"/>
  <path class="fil16" d="M10723 20895c-89,-164 14,-33 -131,-59 -4,-1 -137,-2 -161,-3 -612,-3 -969,41 -1592,-100 -274,-62 -1011,-287 -1196,-472 -422,-180 -884,-724 -1131,-1092 -230,-342 -644,-1352 -431,-1720l12 -419 -43 -24c-77,568 -96,1019 74,1575 69,227 148,426 266,623 75,125 286,439 369,522 547,544 1644,1104 2416,1138l-266 14c297,76 605,77 910,79 321,2 614,-67 904,-62z"/>
  <path class="fil17" d="M7643 20261c44,-40 501,122 592,147 199,55 538,144 734,154l-90 -53c-94,-72 -635,-193 -831,-290 -544,-267 -955,-516 -1335,-986 -143,-178 -353,-486 -427,-746 -39,-307 -282,-666 -205,-1038 -213,368 201,1378 431,1720 247,368 709,912 1131,1092z"/>
  <path class="fil18" d="M10417 12460c337,-44 634,-144 1002,-161 351,-17 734,48 1077,51 247,-161 1255,261 1547,276 -43,-121 -63,-93 -213,-139 -309,-95 -470,-150 -803,-198 -412,-60 -849,-108 -1276,-74 209,-28 756,-66 1003,-21 346,37 634,48 985,144 26,7 139,43 156,43 149,5 119,-12 170,-63 -219,1 -642,-121 -899,-157 -304,-42 -686,-58 -993,-37 -387,26 -1490,138 -1756,336z"/>
  <path class="fil19" d="M13685 18809c26,73 -50,80 69,42 435,-339 811,-749 1153,-1175 -219,531 -1066,1179 -1141,1363l56 -25c33,-149 -20,-29 99,-142l627 -526c98,-113 106,-187 244,-226l73 -107c-31,-113 2,-154 74,-225 219,-304 552,-1110 626,-1513l-26 -288c-104,662 -345,1090 -722,1626 -234,334 -793,989 -1132,1196z"/>
  <path class="fil20" d="M10845 21370c-222,164 -1468,21 -1799,19 12,10 26,18 38,24 284,152 522,44 851,149l-920 -12c157,148 265,71 611,70 172,-1 382,32 534,-21 319,-113 712,-89 1060,-156 458,-88 1546,-423 1828,-635 -239,32 -766,260 -1053,344 -385,114 -761,150 -1150,218z"/>
  <path class="fil21" d="M15472 13132c39,154 117,136 241,267 74,80 129,167 201,261 143,189 239,413 322,641 124,341 305,1394 135,1671 34,269 -112,848 -261,1065 82,-474 283,-1372 93,-1928 -47,-139 -36,-82 -59,-113 17,856 230,993 -138,2130 2,67 -41,49 77,147l83 -194c331,-665 395,-1771 200,-2515 -96,-366 -235,-708 -443,-1023 -163,-249 -481,-660 -737,-781 41,136 42,89 168,189 76,59 117,105 169,181l-51 2z"/>
  <path class="fil22" d="M5554 17114l-38 418c163,96 34,208 101,594 77,441 346,1196 711,1423 -122,-329 -255,-470 -346,-855 -102,-425 -65,-670 -109,-1078 -17,-126 7,-30 -46,-71 29,257 2,509 39,800 30,235 93,420 132,642 -722,-872 -92,-2647 -113,-2862 -106,91 -151,314 -199,471 -51,167 -120,347 -132,518z"/>
  <path class="fil23" d="M8771 21551l244 -1 920 12c-329,-105 -567,3 -851,-149 -12,-6 -26,-14 -38,-24 331,2 1577,145 1799,-19 -601,113 -1480,56 -2079,-55 -297,-56 -568,-136 -850,-234 -211,-73 -601,-279 -757,-316 90,84 599,382 736,452 209,106 779,262 876,334z"/>
  <path class="fil24" d="M11681 12556c247,44 660,-33 970,5 213,26 738,157 879,150l124 59 0 -86c1,-5 2,-20 2,-25l11 -44c-372,-127 -663,-227 -1068,-267 173,165 189,-9 680,234 -437,-91 -679,-116 -1121,-144 -392,-25 -753,66 -1116,81 82,-7 140,22 167,21 127,-5 -6,-47 236,-46 1,5 -3,8 -3,14 0,7 -3,14 -3,16 0,2 -2,13 -2,16 -6,67 -29,13 1,69 188,-11 121,38 243,-53z"/>
  <path class="fil25" d="M13754 18851c-61,160 -200,234 -342,327 -140,91 -284,232 -433,269l89 32c156,-12 634,-317 698,-440 75,-184 922,-832 1141,-1363 -342,426 -718,836 -1153,1175z"/>
  <path class="fil9" d="M5190 17834c41,-66 12,-18 48,80 49,134 22,62 80,168 71,131 80,236 195,330l3 -880 38 -418 -16 103c-62,249 -48,306 -81,532 -74,154 -42,143 -64,297 -53,-165 -115,-323 -163,-488 -79,-275 -31,-414 -137,-550 -37,230 -60,661 97,826z"/>
  <path class="fil25" d="M14370 11576l276 155c12,-9 28,-37 36,-29 8,8 23,-20 34,-30l62 -60c-68,-28 -1241,-690 -1490,-578 362,181 722,274 1082,542z"/>
  <path class="fil22" d="M13530 12711c136,145 427,186 623,284 193,98 423,289 596,358l-29 -99c-27,-100 -71,-79 -220,-192 -210,-158 -592,-387 -833,-447l-11 44c0,5 -1,20 -2,25l0 86 -124 -59z"/>
  <path class="fil26" d="M13523 20255c-138,28 -764,388 -986,478 -313,127 -855,255 -1090,372 417,-21 1844,-534 2076,-850z"/>
  <path class="fil27" d="M6685 20517c110,-16 54,24 117,-70l-471 -481c-132,-122 -45,-91 -180,-150 -19,76 7,133 63,222 25,40 101,156 125,187 63,82 262,282 346,292z"/>
  <path class="fil28" d="M16006 17126c-75,453 -523,978 -590,1284 261,-165 638,-1005 750,-1331l-83 194c-118,-98 -75,-80 -77,-147z"/>
  <path class="fil29" d="M5827 17545c53,41 29,-55 46,71 139,-196 -14,-422 177,-610l43 24c-8,-211 57,-350 102,-551l-119 -2c-97,309 -240,768 -249,1068z"/>
  <path class="fil16" d="M15499 12661c39,100 108,155 199,251 107,112 153,180 285,211 -189,-266 -483,-674 -758,-821 45,128 228,252 332,375l-58 -16z"/>
  <path class="fil20" d="M16845 15077c106,-143 97,-296 8,-446 -76,183 -19,90 -102,-215 -9,-33 -29,-118 -43,-148 -67,-148 -30,-69 -103,-121l240 930z"/>
  <path class="fil30" d="M5534 18526l-21 -114c-115,-94 -124,-199 -195,-330 -58,-106 -31,-34 -80,-168 -36,-98 -7,-146 -48,-80 -4,210 161,551 276,742l68 -50z"/>
  <path class="fil31" d="M5385 17651l-12 56 84 42c33,-226 19,-283 81,-532 -91,-102 -46,-124 -47,-290 -67,176 -34,310 -59,503l-66 -257 19 478z"/>
  <path class="fil32" d="M14646 11731l493 220c-149,-179 -177,-204 -361,-339l-62 60c-11,10 -26,38 -34,30 -8,-8 -24,20 -36,29z"/>
  <path class="fil28" d="M16164 14994c-40,-262 -152,-646 -337,-821 44,161 110,252 171,407 26,68 50,130 70,199 42,144 9,102 96,215z"/>
  <path class="fil28" d="M14362 19625c178,-111 424,-361 538,-540 -148,79 -470,397 -538,540z"/>
  <path class="fil33" d="M14878 12536c-102,-141 -552,-366 -734,-386l734 386z"/>
  <path class="fil34" d="M16513 13375c-72,-173 -220,-451 -361,-526 45,111 110,175 174,283 28,45 55,105 83,147 85,127 18,49 104,96z"/>
  <path class="fil28" d="M5822 19081c-32,-92 -64,-155 -97,-246 -6,-18 -34,-106 -38,-115 -60,-144 1,-44 -98,-150 36,176 97,409 233,511z"/>
  <path class="fil28" d="M6112 19566c-47,-150 -175,-341 -288,-445 45,150 176,377 288,445z"/>
  <path class="fil35" d="M14865 18013c73,-41 73,-16 101,-67 108,-196 12,-107 -27,-158 -72,71 -105,112 -74,225z"/>
  <path class="fil36" d="M14749 13353l280 226c-51,-114 -188,-270 -309,-325l29 99z"/>
  <path class="fil33" d="M14571 12884c-99,-116 -369,-264 -528,-258l528 258z"/>
  <path class="fil28" d="M6821 20362c-73,-130 -213,-287 -346,-349 78,135 210,263 346,349z"/>
  <path class="fil12" d="M7094 14043c150,-46 106,-61 226,-182 123,-124 145,-74 184,-227l-410 409z"/>
  <path class="fil34" d="M10207 11918c109,-2 123,-7 227,-39 2,-1 87,-29 87,-29 129,-57 16,-2 70,-48 -136,-6 -301,38 -384,116z"/>
  <path class="fil12" d="M6419 14964l312 -459c-117,65 -283,308 -312,459z"/>
  <path class="fil33" d="M7236 20647c83,97 258,169 390,204 -82,-84 -262,-182 -390,-204z"/>
  <path class="fil12" d="M16605 14147c7,-144 -114,-370 -220,-457l220 457z"/>
  <path class="fil28" d="M7236 20647l-407 -299c66,127 257,267 407,299z"/>
  <path class="fil33" d="M15111 18830c91,-47 192,-193 232,-309 -91,60 -186,196 -232,309z"/>
  <path class="fil12" d="M6114 15546c89,-83 135,-187 153,-323 -85,94 -138,194 -153,323z"/>
  <path class="fil33" d="M15029 13579c54,102 116,182 212,246 -69,-138 -81,-209 -212,-246z"/>
  <path class="fil12" d="M5885 16125c67,-81 100,-183 111,-307 -79,81 -110,178 -111,307z"/>
  <path class="fil12" d="M7564 13586c113,-50 205,-93 249,-196 -119,49 -183,88 -249,196z"/>
  <path class="fil37" d="M16152 12849c-48,-110 -89,-182 -186,-251 32,117 81,203 186,251z"/>
  <path class="fil33" d="M6227 19720c59,132 91,184 214,248 -70,-105 -119,-200 -214,-248z"/>
  <path class="fil12" d="M5996 15818c69,-77 99,-152 118,-272 -93,75 -108,137 -118,272z"/>
  <path class="fil33" d="M13641 20184c114,-35 218,-108 274,-193 -110,37 -214,113 -274,193z"/>
  <path class="fil33" d="M14911 13118c50,93 146,141 249,211 -61,-123 -118,-156 -249,-211z"/>
  <path class="fil33" d="M15569 13775l234 374c-35,-146 -127,-308 -234,-374z"/>
  <path class="fil33" d="M15569 13775c-57,-134 -81,-184 -209,-246 68,98 121,199 209,246z"/>
  <path class="fil12" d="M8229 13077c129,-32 165,-54 234,-155 -108,25 -179,75 -234,155z"/>
  <path class="fil37" d="M15031 12154c-54,-85 -115,-134 -229,-160 66,94 107,123 229,160z"/>
  <path class="fil12" d="M16385 13690c-25,-126 -138,-289 -234,-343l234 343z"/>
  <path class="fil33" d="M7159 20765c-77,-97 -138,-117 -259,-172 75,97 133,138 259,172z"/>
  <path class="fil28" d="M15111 18830c-105,47 -114,90 -179,208 118,-66 122,-76 179,-208z"/>
  <path class="fil12" d="M6863 14314c118,-55 124,-81 184,-210 -115,67 -110,88 -184,210z"/>
  <path class="fil33" d="M14911 13118c-59,-95 -216,-205 -340,-234l340 234z"/>
  <path class="fil12" d="M16151 13347c-47,-114 -63,-140 -161,-206 45,114 62,159 161,206z"/>
  <path class="fil12" d="M6289 15170c102,-74 103,-72 130,-206 -92,70 -88,85 -130,206z"/>
  <path class="fil33" d="M15186 12760c-48,-92 -92,-104 -199,-144 54,86 95,107 199,144z"/>
  <path class="fil34" d="M15225 12302c-46,-99 -79,-106 -194,-148 50,83 97,103 194,148z"/>
  <path class="fil12" d="M6731 14505c88,-17 93,-90 122,-171 -96,70 -84,48 -122,171z"/>
  <path class="fil34" d="M14802 11994c-73,-90 -89,-87 -211,-128 87,92 86,99 211,128z"/>
  <path class="fil33" d="M14090 19823c116,-23 201,-75 259,-176l-259 176z"/>
  <path class="fil12" d="M7813 13390c111,-43 103,-32 153,-120 -89,30 -138,27 -153,120z"/>
  <path class="fil12" d="M7966 13270c119,-39 105,-24 158,-114 -120,38 -108,22 -158,114z"/>
  <path class="fil33" d="M13915 19991c133,-56 99,-32 166,-138 -110,61 -113,44 -166,138z"/>
  <path class="fil33" d="M6227 19720c-39,-101 -32,-99 -115,-154 36,120 21,105 115,154z"/>
  <path class="fil37" d="M14369 11752c88,103 41,72 183,72l-183 -72z"/>
  <path class="fil24" d="M8124 13156c123,-35 54,12 105,-79 -130,34 -56,-6 -105,79z"/>
  <path class="fil37" d="M10207 11918l-163 62c12,0 46,4 65,-2 172,-54 43,-12 98,-60z"/>
  <path class="fil33" d="M13523 20255l118 -71c-135,25 -58,-16 -118,71z"/>
  <path class="fil33" d="M14987 12616c-55,-92 14,-45 -109,-80l109 80z"/>
  <path class="fil36" d="M15343 18521c90,-59 45,12 73,-111l-73 111z"/>
 </g>
</svg>
